<svg id="Layer_1" data-name="Layer 1" xmlns="http://www.w3.org/2000/svg" viewBox="0 0 612.5 792"><defs><style>.cls-1{fill:#2785c7;}.cls-2{fill:none;stroke:#fff;stroke-miterlimit:10;}.cls-3{opacity:0.19;}</style></defs><title>background</title><rect class="cls-1" x="0.5" width="612" height="792"/><line class="cls-2" x1="66" x2="66" y2="792"/><line class="cls-2" x1="6" x2="6" y2="792"/><line class="cls-2" x1="126" x2="126" y2="792"/><line class="cls-2" x1="246" x2="246" y2="792"/><line class="cls-2" x1="186" x2="186" y2="792"/><line class="cls-2" x1="486" x2="486" y2="792"/><line class="cls-2" x1="547" x2="547" y2="792"/><line class="cls-2" x1="607.39" x2="607.39" y2="792"/><line class="cls-2" x1="306" x2="306" y2="792"/><line class="cls-2" x1="426" x2="426" y2="792"/><line class="cls-2" x1="366" x2="366" y2="792"/><line class="cls-2" x1="612.5" y1="4" x2="0.5" y2="4"/><line class="cls-2" x1="612.5" y1="64" x2="0.5" y2="64"/><line class="cls-2" x1="612.5" y1="184" x2="0.5" y2="184"/><line class="cls-2" x1="612.5" y1="124" x2="0.5" y2="124"/><line class="cls-2" x1="612.5" y1="424" x2="0.5" y2="424"/><line class="cls-2" x1="612.5" y1="485" x2="0.5" y2="485"/><line class="cls-2" x1="612.5" y1="244" x2="0.5" y2="244"/><line class="cls-2" x1="612.5" y1="364" x2="0.5" y2="364"/><line class="cls-2" x1="612.5" y1="304" x2="0.5" y2="304"/><line class="cls-2" x1="612.5" y1="724" x2="0.5" y2="724"/><line class="cls-2" x1="612.5" y1="785" x2="0.5" y2="785"/><line class="cls-2" x1="612.5" y1="544" x2="0.5" y2="544"/><line class="cls-2" x1="612.5" y1="664" x2="0.5" y2="664"/><line class="cls-2" x1="612.5" y1="604" x2="0.5" y2="604"/><rect class="cls-3" width="612" height="792"/></svg>