<?xml version="1.0" encoding="utf-8"?>
<!-- Generator: Adobe Illustrator 23.0.3, SVG Export Plug-In . SVG Version: 6.00 Build 0)  -->
<svg version="1.1" id="Layer_1" xmlns="http://www.w3.org/2000/svg" xmlns:xlink="http://www.w3.org/1999/xlink" x="0px" y="0px"
	 viewBox="0 0 295.52 294.03" style="enable-background:new 0 0 295.52 294.03;" xml:space="preserve">
<style type="text/css">
	.st0{fill:#FFFFFF;}
</style>
<g id="EouvWS_1_">
	<g>
		<path class="st0" d="M6.91,144.02C6.89,71.86,65.44,9.18,140.97,6.32c81.12-3.07,145.18,59.99,145.7,139.76
			c0.49,75.91-59.49,136.72-134.2,139.77C69.9,289.22,5.81,222.6,6.91,144.02z M146.71,262.75
			c63.88-0.02,116.54-51.92,116.69-116.05c0.14-64.51-51.35-116.97-116.49-117.16C83.14,29.36,30.63,81.46,30.24,144.98
			C29.84,209.66,82.37,262.78,146.71,262.75z"/>
		<path class="st0" d="M77.38,215.34c2.93-5.73,5.29-10.4,7.7-15.04c12.56-24.18,25.1-48.38,37.78-72.49
			c1.09-2.07,2.89-4.22,4.92-5.29c28.1-14.77,56.3-29.36,84.48-43.98c0.95-0.49,1.98-0.83,4.23-1.75
			c-3.91,7.56-7.21,13.99-10.54,20.4c-11.64,22.41-23.24,44.85-35,67.2c-1.09,2.08-2.88,4.24-4.9,5.31
			c-28.25,14.85-56.59,29.52-84.92,44.22C80.32,214.33,79.43,214.57,77.38,215.34z M159.47,145.74c-0.35-7.33-5.8-12.58-12.86-12.39
			c-7.33,0.2-12.73,6.1-12.27,13.39c0.43,6.76,6.33,12.36,12.77,12.13C153.94,158.63,159.79,152.41,159.47,145.74z"/>
	</g>
</g>
</svg>
